<?xml version="1.0" standalone="no"?><!DOCTYPE svg PUBLIC "-//W3C//DTD SVG 1.1//EN" "http://www.w3.org/Graphics/SVG/1.1/DTD/svg11.dtd"><svg t="1533546065476" class="icon" style="" viewBox="0 0 1024 1024" version="1.1" xmlns="http://www.w3.org/2000/svg" p-id="4642" xmlns:xlink="http://www.w3.org/1999/xlink" width="128" height="128"><defs><style type="text/css"></style></defs><path d="M830.33807 595.033807L736.015679 306.046056l-87.298384 233.297403-142.487016-303.035767L382.808427 536.834885 264.905439 303.035767l-75.257227 286.479177-110.878981-85.291524 59.202352 209.215091h748.056834l78.769231-227.276826-134.459578 108.872122z m33.113179 79.270946l-698.387065-0.501715-20.570308-67.731504 72.246937 48.164625L275.943165 419.433611l107.868692 207.208231 123.421852-276.946595 141.483586 283.468888L737.520823 429.467908l78.769231 233.297403 78.769231-68.233219-31.608036 79.772661zM157.538462 773.142577s23.078883 73.752082 29.601175 97.33268c7.525723 28.597746 42.645762 61.710926 88.301813 61.710926H767.623714c45.656051 0 65.724645-38.632043 72.246938-60.205781 7.024008-21.573738 26.089172-98.837825 26.089172-98.837825H157.538462z m590.518373 119.408133H259.88829c-37.628613 0-46.157766-79.270946-46.157766-79.270945H807.760902c-0.501715-0.501715-5.518863 79.270946-59.704067 79.270945zM964.797648 336.148947c32.611465 0 59.202352 26.590887 59.202352 59.704066 0 33.11318-26.590887 59.704067-59.202352 59.704067-32.611465 0-59.202352-26.590887-59.202352-59.704067 0-33.11318 26.590887-59.704067 59.202352-59.704066z m-462.581087-278.45174c38.130328 0 68.734934 31.10632 68.734933 69.738364s-30.604606 69.738364-68.734933 69.738363-68.734934-31.10632-68.734934-69.738363c-0.501715-38.130328 30.604606-69.738364 68.734934-69.738364zM59.202352 336.148947c32.611465 0 59.202352 26.590887 59.202352 59.704066 0 33.11318-26.590887 59.704067-59.202352 59.704067C26.590887 455.055365 0 428.464478 0 395.853013 0 362.739833 26.590887 336.148947 59.202352 336.148947z" p-id="4643" fill="#1296db"></path></svg>